<?xml version="1.0" encoding="utf-8"?>
<svg version="1.0" width="443.000000pt" height="505.000000pt" viewBox="0 0 443.000000 505.000000" preserveAspectRatio="xMidYMid meet" xmlns="http://www.w3.org/2000/svg">
  <defs/>
  <g transform="translate(0.000000,505.000000) scale(0.100000,-0.100000)" fill="#000000" stroke="none">
    <path d="M1050 4440 c0 -5 9 -33 20 -62 19 -52 20 -79 20 -1428 l1 -1375 -350&#10;-220 -351 -220 0 -148 c0 -169 8 -198 69 -246 361 -284 1936 -383 2936 -185&#10;297 59 498 143 557 231 15 24 18 50 18 188 l0 160 -351 219 c-192 121 -352&#10;222 -354 226 -2 4 -7 620 -11 1371 l-6 1364 26 55 c14 30 26 61 26 68 0 9&#10;-232 12 -1125 12 -735 0 -1125 -3 -1125 -10z m1911 -8 c102 -3 107 -4 118 -28&#10;6 -14 11 -26 11 -27 0 -1 -412 -2 -915 -2 -503 0 -915 1 -915 2 0 1 4 13 10&#10;27 9 25 12 25 117 29 150 4 1444 4 1574 -1z m-1706 -19 c-4 -10 -10 -26 -12&#10;-35 -5 -15 -17 -18 -78 -18 -73 0 -73 0 -84 31 -6 18 -11 34 -11 35 0 2 43 4&#10;96 4 88 0 96 -2 89 -17z m2020 0 c-4 -10 -10 -26 -12 -35 -4 -15 -17 -18 -78&#10;-18 -67 0 -73 2 -83 25 -7 14 -12 30 -12 35 0 6 42 10 96 10 88 0 96 -2 89&#10;-17z m-171 -69 c3 -9 6 -78 6 -155 l0 -139 -935 0 -935 0 0 148 c0 82 3 152 7&#10;155 3 4 421 7 929 7 831 0 922 -2 928 -16z m-1884 -1374 l0 -1370 -55 0 -55 0&#10;0 1370 0 1370 55 0 55 0 0 -1370z m2020 0 l0 -1370 -53 0 -54 0 -6 947 c-4&#10;520 -7 1137 -7 1370 l0 423 60 0 60 0 0 -1370z m-1071 133 c-1 -516 -5 -1066&#10;-8 -1223 l-6 -285 -265 -3 c-146 -2 -352 0 -457 3 l-193 7 0 1214 0 1214 308&#10;3 c169 1 378 3 465 5 l157 2 -1 -937z m714 927 l227 0 0 -1213 0 -1214 -137&#10;-6 c-75 -4 -285 -7 -466 -7 l-330 0 6 803 c4 441 7 993 7 1226 l0 424 233 -6&#10;c127 -4 334 -7 460 -7z m-1733 -2680 c213 -164 1673 -182 2017 -25 74 33 85&#10;55 81 159 -2 48 -1 86 1 86 15 0 331 -205 331 -215 0 -34 -105 -92 -236 -129&#10;-292 -83 -737 -122 -1289 -113 -530 9 -900 57 -1139 147 -72 28 -150 95 -126&#10;110 8 5 85 53 170 107 l155 98 5 -103 c5 -95 7 -105 30 -122z m2060 216 c-6&#10;-8 -39 -24 -73 -35 -377 -125 -1404 -133 -1857 -16 -60 16 -140 50 -140 60 0&#10;3 469 5 1041 5 907 0 1040 -2 1029 -14z m-2038 -25 c135 -80 593 -128 1123&#10;-118 469 9 805 54 911 124 l24 15 0 -88 c0 -49 -4 -94 -8 -100 -31 -47 -234&#10;-96 -522 -126 -170 -18 -872 -18 -1040 0 -270 29 -462 73 -506 117 -22 22 -24&#10;33 -24 110 0 47 2 85 4 85 3 0 20 -9 38 -19z m-386 -437 c37 -56 232 -126 455&#10;-163 567 -95 1367 -93 1909 5 234 43 372 93 424 155 26 31 27 35 24 141 -2 91&#10;-1 107 11 103 43 -17 351 -220 351 -231 0 -27 -71 -92 -138 -127 -255 -133&#10;-814 -221 -1492 -234 -898 -17 -1693 111 -1885 302 -60 61 -56 67 143 190&#10;l177 111 3 -114 c2 -83 7 -120 18 -138z m45 187 c44 -33 148 -70 279 -100 567&#10;-133 1685 -126 2211 15 97 26 210 73 241 101 17 15 18 11 18 -84 0 -95 -1&#10;-100 -27 -125 -172 -160 -1034 -252 -1848 -197 -481 33 -864 124 -915 218 -10&#10;19 -15 201 -5 201 3 0 23 -13 46 -29z m-301 -310 c211 -113 620 -193 1168&#10;-231 197 -13 761 -13 967 0 631 41 1103 149 1255 286 l40 36 0 -121 c0 -143&#10;-8 -165 -77 -212 -123 -85 -377 -159 -715 -209 -324 -47 -459 -55 -973 -55&#10;-502 0 -601 5 -925 46 -408 52 -740 153 -829 254 l-31 36 0 131 0 130 31 -30&#10;c17 -17 57 -44 89 -61z" style="fill: rgb(255, 255, 255);"/>
    <path d="M1728 4413 c-230 -2 -418 -7 -418 -11 0 -4 387 -7 860 -7 473 0 860&#10;3 860 8 0 4 -190 7 -422 7 -233 0 -432 1 -443 3 -11 1 -208 1 -437 0z" style="fill: rgb(255, 255, 255);"/>
    <path d="M1110 4400 c-11 -7 3 -10 48 -10 35 0 62 4 62 10 0 13 -90 13 -110 0z" style="fill: rgb(255, 255, 255);"/>
    <path d="M3130 4400 c0 -6 27 -10 63 -10 44 0 58 3 47 10 -20 13 -110 13 -110&#10;0z" style="fill: rgb(255, 255, 255);"/>
    <path d="M1453 4289 c-64 -18 -84 -94 -39 -146 l24 -28 737 0 737 0 24 28 c46&#10;54 25 128 -44 147 -47 13 -1393 12 -1439 -1z m132 -41 c-12 -29 -18 -33 -47&#10;-30 -18 2 -51 13 -73 24 -35 19 -38 22 -20 29 11 4 50 8 87 8 l67 1 -14 -32z&#10;m185 27 c0 -15 -110 -65 -142 -65 -44 0 -48 13 -16 47 18 20 31 23 90 23 37 0&#10;68 -2 68 -5z m89 -26 c28 -18 51 -34 51 -35 0 -2 -20 -4 -45 -4 -43 0 -45 1&#10;-45 30 0 17 -4 30 -10 30 -5 0 -10 -13 -10 -30 0 -29 -1 -30 -47 -30 -25 0&#10;-44 3 -41 6 5 4 89 61 95 63 1 1 24 -13 52 -30z m93 2 c-15 -27 -18 -28 -42&#10;-16 -14 7 -34 20 -45 29 -19 14 -16 15 42 16 l62 0 -17 -29z m144 -2 c-26 -17&#10;-49 -29 -50 -27 -1 2 -7 15 -14 31 l-12 27 63 0 62 0 -49 -31z m164 -26 c12&#10;-11 8 -13 -30 -10 -41 2 -45 5 -51 32 l-7 30 -1 -28 c-1 -32 -15 -40 -62 -35&#10;l-33 3 49 32 49 32 36 -21 c19 -12 42 -27 50 -35z m54 27 l-15 -29 -42 26&#10;c-23 14 -44 27 -46 29 -2 2 23 4 57 4 l60 0 -14 -30z m181 22 c-29 -25 -85&#10;-53 -85 -41 0 7 -7 21 -17 31 -15 17 -13 18 47 18 36 0 60 -4 55 -8z m244 -18&#10;c11 -15 18 -30 15 -35 -12 -20 -75 -8 -131 26 l-58 35 77 0 c71 0 78 -2 97&#10;-26z m155 20 c9 -3 16 -10 16 -14 0 -9 -61 -35 -107 -45 -29 -6 -33 -4 -33 14&#10;0 11 -4 23 -10 26 -5 3 -10 10 -10 16 0 10 119 13 144 3z m-880 -23 c23 -25&#10;13 -41 -25 -41 -31 0 -40 25 -17 48 16 16 22 15 42 -7z m364 7 c23 -23 14 -48&#10;-17 -48 -36 0 -46 13 -31 40 12 23 30 26 48 8z m149 -45 c-3 -2 -25 -3 -48 -1&#10;l-44 3 45 27 45 28 3 -26 c2 -14 1 -28 -1 -31z m108 5 c5 -4 -12 -8 -38 -8&#10;-46 0 -47 1 -47 31 l0 31 38 -23 c20 -12 41 -26 47 -31z m-1177 -15 c0 -20&#10;-23 -43 -42 -43 -8 0 -8 75 0 83 12 12 42 -17 42 -40z m1482 3 c0 -40 -7 -48&#10;-31 -36 -21 12 -21 50 0 67 22 16 31 7 31 -31z m-1430 0 c0 -9 -30 -14 -35 -6&#10;-4 6 3 10 14 10 12 0 21 -2 21 -4z m1360 -6 c0 -5 -4 -10 -9 -10 -6 0 -13 5&#10;-16 10 -3 6 1 10 9 10 9 0 16 -4 16 -10z m-1150 -33 l55 -32 -69 -3 c-63 -3&#10;-72 -1 -94 21 -54 54 23 64 108 14z m80 2 l0 -31 -37 23 c-59 35 -60 39 -10&#10;39 46 0 47 -1 47 -31z m105 23 c-6 -5 -27 -19 -47 -31 l-38 -23 0 31 c0 30 1&#10;31 47 31 26 0 43 -4 38 -8z m125 -5 c0 -8 -9 -22 -20 -32 -16 -15 -22 -15 -35&#10;-5 -8 7 -15 21 -15 31 0 15 7 19 35 19 23 0 35 -5 35 -13z m141 -19 l1 -33 7&#10;30 c6 28 10 30 56 33 55 3 54 2 -25 -46 l-35 -21 -55 35 -54 34 52 0 c52 0 52&#10;0 53 -32z m217 11 c-2 -12 -11 -27 -21 -33 -15 -9 -21 -7 -33 8 -24 33 -17 46&#10;22 46 31 0 35 -3 32 -21z m144 -13 l4 -33 -48 29 c-26 16 -48 32 -48 34 0 2&#10;20 4 44 4 42 0 44 -1 48 -34z m103 26 c-6 -5 -27 -19 -47 -31 l-38 -23 0 31&#10;c0 30 1 31 47 31 26 0 43 -4 38 -8z m119 -1 c3 -5 -4 -20 -15 -35 -19 -24 -26&#10;-26 -97 -26 l-77 0 55 34 c54 34 122 47 134 27z m-1167 -31 l11 -30 -71 0&#10;c-97 0 -115 13 -57 39 25 11 59 21 75 21 25 0 33 -6 42 -30z m351 -28 c-15 -2&#10;-43 -2 -60 0 l-33 3 44 27 45 27 16 -27 c17 -27 16 -27 -12 -30z m160 28 l47&#10;-30 -62 0 -61 0 11 30 c6 17 13 30 14 30 2 0 24 -13 51 -30z m216 0 l14 -30&#10;-61 0 -62 0 45 30 c25 16 46 29 47 29 1 1 8 -12 17 -29z m181 -22 c5 -4 -19&#10;-8 -55 -8 -60 0 -62 1 -47 18 10 10 17 24 17 31 0 12 56 -16 85 -41z m369 36&#10;c67 -23 53 -38 -37 -42 l-76 -3 12 31 c13 35 31 38 101 14z" style="fill: rgb(255, 255, 255);"/>
    <path d="M1120 4060 c0 -5 20 -10 45 -10 25 0 45 5 45 10 0 6 -20 10 -45 10&#10;-25 0 -45 -4 -45 -10z" style="fill: rgb(255, 255, 255);"/>
    <path d="M1138 4020 l22 -9 0 -1016 c0 -1008 0 -1015 -20 -1015 -11 0 -20 -4&#10;-20 -10 0 -5 20 -10 45 -10 25 0 45 5 45 10 0 6 -9 10 -21 10 l-21 0 5 1017&#10;c5 974 6 1017 24 1024 11 5 -1 8 -32 8 -40 0 -45 -2 -27 -9z" style="fill: rgb(255, 255, 255);"/>
    <path d="M1120 1940 c0 -5 20 -10 45 -10 25 0 45 5 45 10 0 6 -20 10 -45 10&#10;-25 0 -45 -4 -45 -10z" style="fill: rgb(255, 255, 255);"/>
    <path d="M3140 4060 c0 -5 20 -10 45 -10 25 0 45 5 45 10 0 6 -20 10 -45 10&#10;-25 0 -45 -4 -45 -10z" style="fill: rgb(255, 255, 255);"/>
    <path d="M3153 4023 c16 -4 17 -61 17 -1024 0 -899 -2 -1019 -15 -1019 -8 0&#10;-15 -4 -15 -10 0 -5 20 -10 45 -10 25 0 45 5 45 10 0 6 -9 10 -20 10 -20 0&#10;-20 7 -20 1019 l0 1020 23 4 c12 2 0 4 -28 4 -27 1 -42 -1 -32 -4z" style="fill: rgb(255, 255, 255);"/>
    <path d="M3140 1940 c0 -5 20 -10 45 -10 25 0 45 5 45 10 0 6 -20 10 -45 10&#10;-25 0 -45 -4 -45 -10z" style="fill: rgb(255, 255, 255);"/>
    <path d="M1468 3933 l-78 -4 0 -87 c0 -76 2 -89 20 -100 17 -10 30 -9 80 8&#10;104 35 377 28 464 -11 22 -10 29 -9 46 6 17 15 20 31 20 100 l0 82 -37 7 c-38&#10;6 -367 5 -515 -1z m452 -20 c-184 -7 -490 -7 -490 0 0 4 127 6 283 5 155 -1&#10;248 -3 207 -5z m-500 -73 c0 -27 -4 -52 -10 -55 -6 -4 -10 17 -10 55 0 38 4&#10;59 10 55 6 -3 10 -28 10 -55z m589 -37 c1 -13 -3 -23 -9 -23 -6 0 -10 27 -9&#10;63 1 59 2 60 10 22 4 -22 8 -50 8 -62z m-29 32 c0 -30 -3 -55 -6 -55 -3 0 -31&#10;8 -62 17 -44 13 -93 17 -207 17 -134 0 -171 -5 -252 -29 -22 -7 -23 -5 -23 49&#10;l0 56 275 0 275 0 0 -55z m-85 -51 c33 -8 65 -20 70 -26 7 -8 4 -9 -10 -3&#10;-115 46 -385 46 -500 0 -16 -6 -18 -5 -8 5 35 38 332 55 448 24z" style="fill: rgb(255, 255, 255);"/>
    <path d="M1555 3716 c-71 -19 -97 -30 -133 -61 l-32 -27 0 -823 0 -824 23 -21&#10;c64 -61 161 -84 323 -78 133 6 206 27 256 75 l28 27 0 392 c0 348 2 393 16&#10;398 9 3 17 6 19 6 2 0 5 -25 7 -56 3 -60 20 -83 52 -71 14 6 16 22 14 129 l-3&#10;123 -30 0 c-27 0 -30 -3 -35 -39 -3 -27 -10 -40 -22 -42 -17 -2 -18 23 -18&#10;400 l0 403 -22 20 c-33 30 -96 59 -156 72 -69 14 -224 13 -287 -3z m242 -7&#10;c88 -12 151 -36 187 -72 l25 -25 -6 -394 c-3 -216 -7 -395 -9 -397 -2 -2 -4&#10;176 -4 396 0 452 7 412 -85 455 -45 21 -65 23 -200 23 -136 0 -155 -2 -202&#10;-23 -92 -42 -84 45 -84 -873 0 -772 1 -814 18 -827 112 -87 398 -91 520 -9&#10;l33 22 2 385 1 385 8 -380 9 -380 -35 -31 c-53 -48 -139 -69 -275 -69 -135 0&#10;-212 20 -265 66 l-34 30 0 813 0 813 22 21 c34 32 111 62 180 71 90 12 107 12&#10;194 0z m-113 -70 c6 -41 4 -55 -10 -70 -16 -18 -18 -17 -73 10 -31 16 -73 34&#10;-94 41 -28 9 -36 15 -28 23 13 13 135 46 172 46 24 1 27 -3 33 -50z m23 4 c-3&#10;-10 -5 -2 -5 17 0 19 2 27 5 18 2 -10 2 -26 0 -35z m173 20 c63 -21 67 -29 23&#10;-43 -21 -7 -64 -26 -97 -42 -32 -16 -59 -28 -60 -26 -30 41 -32 49 -22 93 l11&#10;46 50 -7 c27 -3 70 -13 95 -21z m-341 -73 c70 -27 112 -54 100 -64 -39 -31&#10;-122 -88 -147 -100 -52 -27 -62 -11 -62 94 0 84 4 100 22 100 5 0 44 -14 87&#10;-30z m439 -66 c4 -136 -11 -140 -156 -37 -42 30 -60 49 -54 55 16 16 175 78&#10;192 75 12 -2 16 -22 18 -93z m-248 15 c0 -10 -30 -20 -41 -13 -13 7 -11 28 3&#10;42 10 10 15 9 25 -5 7 -9 13 -20 13 -24z m-88 -71 c-26 -22 -61 -56 -78 -76&#10;l-31 -36 -29 19 c-26 17 -27 19 -10 29 10 6 53 36 95 67 53 39 80 53 88 47 9&#10;-7 -1 -21 -35 -50z m259 -53 c16 -9 29 -18 29 -20 0 -3 -11 -12 -25 -21 -26&#10;-17 -26 -17 -104 59 -94 92 -91 119 6 46 35 -27 77 -56 94 -64z m-98 -4 c31&#10;-31 57 -60 57 -67 0 -6 -8 -18 -19 -28 -17 -16 -19 -14 -35 28 -19 49 -76 106&#10;-106 106 -28 0 -86 -62 -102 -110 l-13 -41 -23 24 -23 24 82 77 c92 89 73 90&#10;182 -13z m-53 -10 c43 -45 65 -113 47 -142 -7 -11 -15 -19 -19 -19 -3 0 -21&#10;36 -39 80 -18 44 -36 77 -39 73 -4 -5 -19 -41 -34 -80 -15 -40 -31 -73 -34&#10;-73 -4 0 -13 9 -20 20 -10 16 -10 30 -2 61 11 40 73 119 93 119 5 0 27 -17 47&#10;-39z m-261 -36 l30 -26 -42 -60 -42 -61 -3 73 c-4 107 4 118 57 74z m489 -63&#10;c2 -45 -1 -82 -5 -82 -4 1 -25 28 -45 61 l-38 60 28 24 c46 42 57 31 60 -63z&#10;m-218 -78 c0 -2 -11 -4 -25 -4 -23 0 -25 4 -25 48 0 26 -3 58 -6 72 -3 14 9&#10;-6 25 -43 17 -38 31 -71 31 -73z m-62 49 c-3 -41 -6 -48 -25 -51 -28 -4 -28 1&#10;-5 55 22 56 34 54 30 -4z m185 -142 c5 14 7 29 6 35 -1 5 -1 41 0 79 l1 70 35&#10;-55 c18 -30 30 -59 26 -65 -4 -5 -22 -29 -40 -53 l-34 -43 -28 27 c-33 31 -38&#10;68 -11 83 9 6 12 11 5 11 -20 0 -20 44 2 75 l20 30 5 -110 c4 -76 8 -102 13&#10;-84z m-353 -11 c6 0 10 41 10 97 0 95 0 96 20 78 21 -19 28 -75 9 -75 -6 0 -3&#10;-7 5 -16 22 -22 20 -38 -10 -74 -30 -35 -34 -33 -81 33 l-32 44 32 52 32 52 3&#10;-96 c1 -52 7 -95 12 -95z m171 35 l6 -50 1 53 c2 48 4 52 26 52 l24 0 -26 -63&#10;-26 -63 -28 59 c-15 32 -28 61 -28 64 0 2 10 3 23 1 18 -2 23 -11 28 -53z&#10;m109 45 c0 -5 -2 -10 -4 -10 -3 0 -8 5 -11 10 -3 6 -1 10 4 10 6 0 11 -4 11&#10;-10z m-134 -94 c15 -44 15 -49 1 -64 -15 -14 -19 -11 -42 39 -28 61 -30 72&#10;-14 101 11 21 12 21 25 -3 7 -13 21 -46 30 -73z m124 45 c0 -9 -11 -40 -25&#10;-68 -17 -39 -28 -51 -39 -47 -23 9 -20 34 11 104 24 56 28 61 40 44 7 -10 13&#10;-25 13 -33z m-323 -8 c46 -59 46 -60 9 -82 -52 -32 -56 -29 -56 49 0 39 4 70&#10;9 70 5 0 22 -17 38 -37z m503 -39 c0 -41 -4 -64 -11 -64 -23 0 -79 42 -72 53&#10;21 37 66 86 74 81 5 -3 9 -34 9 -70z m-340 -70 c22 -25 -18 -17 -56 12 -40 31&#10;-41 40 -12 71 l22 23 17 -45 c10 -26 23 -53 29 -61z m220 44 c0 -10 -82 -68&#10;-90 -63 -4 3 3 26 16 52 13 25 24 54 24 62 1 11 9 6 25 -14 14 -16 25 -33 25&#10;-37z m-329 -122 c5 -6 9 12 9 47 l0 58 35 -28 36 -28 -38 -32 -37 -31 -26 18&#10;c-14 11 -36 28 -49 39 l-25 19 40 20 39 20 3 -46 c2 -26 7 -51 13 -56z m349&#10;34 c1 25 2 51 1 58 -2 16 3 15 51 -9 22 -11 36 -24 32 -28 -5 -4 -27 -21 -49&#10;-38 l-40 -31 -24 19 c-13 11 -31 24 -40 29 -14 8 -11 14 19 38 l35 30 6 -56 6&#10;-57 3 45z m-152 23 c5 -17 -26 -29 -40 -15 -6 6 -7 15 -3 22 9 14 37 9 43 -7z&#10;m-245 -53 l35 -30 -40 -40 c-22 -22 -42 -40 -44 -40 -2 0 -4 32 -4 70 0 39 4&#10;70 10 70 5 0 25 -14 43 -30z m497 -40 c0 -38 -4 -70 -8 -70 -10 0 -87 79 -81&#10;83 2 2 19 15 37 30 19 15 38 27 43 27 5 0 9 -31 9 -70z m-379 15 l-16 -45 -20&#10;20 -20 20 30 25 c17 13 33 24 36 25 4 0 -1 -20 -10 -45z m83 36 c5 -7 -38&#10;-128 -50 -140 -7 -7 -33 32 -33 49 -1 8 8 34 19 58 13 29 25 42 39 42 11 0 22&#10;-4 25 -9z m101 -24 c23 -57 26 -81 10 -102 -14 -17 -17 -18 -25 -5 -19 29 -50&#10;122 -45 131 14 21 46 8 60 -24z m49 7 c28 -24 28 -25 10 -45 -19 -21 -19 -20&#10;-36 18 -27 62 -21 69 26 27z m-100 -73 c14 -36 26 -66 26 -68 0 -10 -41 -1&#10;-45 10 -4 13 -13 128 -9 124 1 -1 14 -31 28 -66z m-36 -13 c-3 -46 -6 -53 -26&#10;-56 -12 -2 -22 1 -22 6 0 14 40 102 46 102 3 0 4 -24 2 -52z m-118 -25 c0 -12&#10;-5 -25 -10 -28 -6 -4 -4 -12 5 -21 22 -22 19 -40 -15 -76 l-30 -33 -50 54&#10;c-28 30 -50 60 -50 66 0 6 20 31 45 55 l45 44 0 -97 c0 -58 4 -97 10 -97 6 0&#10;10 41 10 103 l0 102 20 -25 c11 -14 20 -35 20 -47z m299 -133 c4 5 9 77 10&#10;150 l1 44 40 -39 c38 -37 51 -65 31 -65 -5 0 -13 -10 -16 -22 -4 -13 -21 -38&#10;-38 -55 l-31 -33 -28 27 c-32 30 -39 83 -12 83 12 0 14 4 7 13 -21 27 -21 47&#10;0 74 l22 28 6 -105 c3 -58 7 -103 8 -100z m241 149 c0 -12 -7 -19 -20 -19 -26&#10;0 -36 25 -20 45 16 19 40 2 40 -26z m-5 -39 c8 -13 -5 -13 -25 0 -13 8 -13 10&#10;2 10 9 0 20 -4 23 -10z m-84 -36 c-60 -27 -74 -30 -69 -11 7 19 49 37 88 36&#10;l35 0 -54 -25z m-411 12 c0 -3 -4 -8 -10 -11 -5 -3 -10 -1 -10 4 0 6 5 11 10&#10;11 6 0 10 -2 10 -4z m82 -48 l2 -53 3 53 c4 47 6 52 27 52 l24 0 -26 -63 -26&#10;-63 -28 59 c-15 32 -28 61 -28 63 0 2 11 4 25 4 23 0 25 -4 27 -52z m108 42&#10;c0 -5 -2 -10 -4 -10 -3 0 -8 5 -11 10 -3 6 -1 10 4 10 6 0 11 -4 11 -10z&#10;m-124 -128 c6 -27 4 -32 -14 -32 -35 0 -72 102 -51 142 12 22 13 22 36 -28 12&#10;-28 26 -65 29 -82z m114 80 c0 -7 -10 -36 -21 -63 -18 -40 -26 -49 -43 -47&#10;-26 4 -24 22 12 102 23 53 27 56 39 40 7 -10 13 -24 13 -32z m320 34 c0 -9&#10;-30 -14 -35 -6 -4 6 3 10 14 10 12 0 21 -2 21 -4z m-600 -103 c0 -3 -78 -43&#10;-85 -43 -3 0 -5 30 -5 67 l0 67 45 -44 c25 -24 45 -45 45 -47z m460 11 c0 -33&#10;-4 -54 -11 -54 -12 0 -79 39 -79 46 0 10 76 72 82 68 5 -3 8 -30 8 -60z m138&#10;29 c-2 -27 -8 -39 -20 -41 -15 -3 -18 4 -18 37 0 35 3 41 21 41 17 0 20 -5 17&#10;-37z m-478 -101 c0 -5 -35 17 -65 42 l-30 24 24 26 24 26 24 -58 c12 -31 23&#10;-58 23 -60z m220 68 c0 -4 -21 -22 -46 -40 -26 -18 -45 -29 -43 -24 3 5 13 32&#10;24 61 l19 52 23 -21 c13 -12 23 -24 23 -28z m-282 -103 l-33 -28 -3 51 c-4 62&#10;-22 57 -22 -6 0 -25 -3 -44 -7 -42 -5 2 -25 12 -45 21 -21 10 -38 21 -38 25 1&#10;4 24 21 53 37 l52 31 38 -31 39 -30 -34 -28z m383 38 c10 -4 19 -9 19 -13 0&#10;-7 -79 -52 -91 -52 -3 0 -6 21 -8 47 -3 65 -11 68 -11 4 l0 -52 -36 28 -36 27&#10;37 32 38 31 34 -23 c19 -13 43 -26 54 -29z m-231 -15 c0 -14 -20 -22 -37 -16&#10;-12 5 -13 9 -3 21 11 14 40 10 40 -5z m-90 -18 c0 -4 -9 -25 -20 -47 -11 -22&#10;-20 -46 -20 -54 0 -11 -8 -7 -27 12 l-28 28 37 35 c36 33 58 43 58 26z m188&#10;-26 l37 -35 -27 -28 c-16 -16 -28 -22 -28 -14 0 7 -11 35 -25 62 -30 61 -13&#10;66 43 15z m-360 -1 c57 -31 57 -29 14 -83 -22 -28 -42 -48 -46 -45 -7 8 -8&#10;143 -1 143 4 0 18 -7 33 -15z m219 -1 c3 -8 -7 -44 -22 -80 -25 -58 -30 -64&#10;-43 -51 -18 19 -10 68 18 115 21 35 37 41 47 16z m92 -33 c25 -58 26 -71 8&#10;-95 -12 -16 -16 -12 -40 42 -27 61 -32 83 -20 95 16 17 32 3 52 -42z m201 -20&#10;c0 -39 -4 -72 -8 -75 -8 -5 -87 93 -80 99 10 9 74 45 81 45 4 0 7 -31 7 -69z&#10;m-390 -73 c0 -9 -8 -22 -17 -28 -13 -8 -14 -13 -5 -16 19 -9 14 -51 -10 -79&#10;l-23 -26 3 105 c2 68 0 106 -7 106 -6 0 -11 -39 -13 -97 l-3 -98 -33 53 -32&#10;53 42 56 41 57 29 -34 c15 -19 28 -42 28 -52z m328 28 l41 -54 -34 -53 -34&#10;-54 -2 45 c0 25 -1 63 -1 85 0 22 -4 47 -9 55 -6 9 -8 -26 -7 -93 l3 -108 -27&#10;30 c-25 28 -29 71 -7 71 5 0 9 5 9 10 0 6 -7 10 -15 10 -24 0 -18 45 11 79 14&#10;17 27 31 29 31 1 0 21 -24 43 -54z m-218 -11 c0 -42 -2 -45 -26 -45 -14 0 -24&#10;3 -22 8 2 4 12 24 21 45 10 20 19 37 22 37 3 0 5 -20 5 -45z m41 -5 l18 -40&#10;-24 0 c-23 0 -25 4 -25 47 0 52 5 51 31 -7z m69 -30 c0 -5 -5 -10 -11 -10 -5&#10;0 -7 5 -4 10 3 6 8 10 11 10 2 0 4 -4 4 -10z m-327 -89 l36 -54 -30 -24 c-47&#10;-40 -59 -26 -59 69 0 89 0 89 53 9z m493 -88 c-8 -19 -27 -16 -59 11 l-28 23&#10;43 62 43 63 3 -73 c2 -39 1 -78 -2 -86z m-277 97 c1 -27 0 -50 -3 -50 -5 0&#10;-46 87 -46 96 0 2 10 4 23 4 21 0 24 -5 26 -50z m52 28 c-16 -40 -52 -114 -46&#10;-95 3 10 5 41 5 68 0 45 2 49 25 49 21 0 23 -3 16 -22z m59 12 c0 -5 -2 -10&#10;-4 -10 -3 0 -8 5 -11 10 -3 6 -1 10 4 10 6 0 11 -4 11 -10z m-146 -73 c16 -39&#10;32 -76 36 -80 4 -5 22 28 40 73 33 81 33 81 52 62 17 -17 18 -24 8 -63 -11&#10;-41 -75 -119 -98 -119 -21 0 -69 57 -87 103 -15 41 -16 51 -5 72 7 14 16 25&#10;19 25 3 0 19 -33 35 -73z m-35 -86 c11 -16 32 -36 46 -45 25 -16 28 -16 60 4&#10;37 23 69 68 80 113 7 27 8 27 26 11 11 -9 19 -22 19 -29 0 -6 -34 -44 -75 -84&#10;-87 -84 -80 -85 -180 15 l-66 66 23 25 22 24 13 -36 c7 -20 21 -49 32 -64z&#10;m-20 -40 c92 -90 89 -115 -5 -44 -32 25 -72 52 -89 60 -16 9 -32 18 -35 20 -4&#10;3 38 42 47 43 1 0 38 -36 82 -79z m299 60 c25 -22 28 -31 10 -31 -7 0 -50 -27&#10;-94 -59 -54 -39 -86 -56 -95 -50 -10 6 -6 13 16 30 17 12 53 46 80 75 28 30&#10;52 54 55 54 3 -1 15 -9 28 -19z m-392 -62 c63 -40 124 -88 124 -98 0 -12 -134&#10;-71 -174 -78 l-36 -6 0 95 c0 86 8 118 30 118 3 0 28 -14 56 -31z m453 17 c8&#10;-9 11 -46 9 -103 l-3 -88 -32 1 c-34 2 -173 62 -173 75 0 16 158 129 181 129&#10;4 0 12 -6 18 -14z m-249 -141 c-10 -12 -16 -13 -26 -4 -8 6 -14 17 -14 24 0&#10;19 23 25 39 9 12 -11 12 -16 1 -29z m-35 -75 c-4 -25 -9 -47 -11 -49 -8 -9&#10;-145 19 -176 35 l-31 16 70 27 c38 15 81 35 94 45 23 16 25 16 42 -6 15 -18&#10;17 -32 12 -68z m198 25 c59 -22 60 -23 37 -35 -33 -18 -119 -40 -155 -40 -28&#10;0 -31 4 -41 46 -9 39 -8 49 8 69 l19 24 36 -21 c19 -12 63 -31 96 -43z m-176&#10;-62 c-3 -10 -5 -4 -5 12 0 17 2 24 5 18 2 -7 2 -21 0 -30z" style="fill: rgb(255, 255, 255);"/>
    <path d="M1407 1862 c-13 -14 -17 -37 -17 -99 l0 -81 63 -7 c34 -3 175 -5 312&#10;-3 l250 3 3 86 c2 75 0 87 -18 104 -19 18 -22 18 -56 2 -84 -40 -349 -47 -446&#10;-12 -23 9 -50 19 -58 21 -9 3 -23 -3 -33 -14z m269 -40 c117 -3 164 0 214 12&#10;77 20 92 13 19 -8 -108 -33 -439 -16 -463 23 -3 5 13 2 37 -7 28 -10 91 -17&#10;193 -20z m-256 -58 c0 -30 -4 -54 -10 -54 -6 0 -10 27 -10 61 0 37 4 58 10 54&#10;6 -3 10 -31 10 -61z m61 49 c36 -14 79 -17 224 -17 145 0 188 3 224 17 24 9&#10;45 17 48 17 2 0 3 -26 1 -57 l-3 -58 -160 -3 c-88 -2 -211 0 -272 3 l-113 7 0&#10;54 c0 30 2 54 4 54 2 0 23 -8 47 -17z m528 -10 c0 -10 -4 -36 -8 -58 -9 -40&#10;-9 -39 -10 18 0 32 3 57 9 57 6 0 10 -8 9 -17z m-167 -110 c-78 -2 -206 -2&#10;-285 0 -78 1 -14 3 143 3 157 0 221 -2 142 -3z" style="fill: rgb(255, 255, 255);"/>
    <path d="M2358 3933 l-28 -4 0 -87 c0 -76 2 -89 20 -100 17 -10 30 -9 80 8&#10;104 35 377 28 464 -11 22 -10 29 -9 46 6 17 15 20 31 20 100 l0 82 -112 6&#10;c-119 7 -444 7 -490 0z m562 -20 c0 -5 -93 -7 -207 -5 -345 4 -374 8 -75 10&#10;155 1 282 -1 282 -5z m-564 -69 c-5 -76 -16 -80 -16 -6 0 36 4 62 10 62 7 0 9&#10;-21 6 -56z m581 -36 c-2 -18 -4 -4 -4 32 0 36 2 50 4 33 2 -18 2 -48 0 -65z&#10;m-17 27 c0 -30 -3 -55 -6 -55 -3 0 -31 8 -62 17 -44 13 -93 17 -207 17 -134 0&#10;-171 -5 -252 -29 -22 -7 -23 -5 -23 49 l0 56 275 0 275 0 0 -55z m-85 -51 c33&#10;-8 65 -20 70 -26 7 -8 4 -9 -10 -3 -115 46 -385 46 -500 0 -16 -6 -18 -5 -8 5&#10;35 38 332 55 448 24z" style="fill: rgb(255, 255, 255);"/>
    <path d="M2495 3716 c-71 -19 -97 -30 -133 -61 l-32 -27 0 -405 c0 -380 -1&#10;-404 -17 -401 -12 2 -19 14 -21 33 -5 37 -19 55 -43 55 -29 0 -39 -32 -39&#10;-130 0 -97 10 -130 38 -130 30 0 42 22 42 77 0 51 1 53 20 43 19 -10 20 -21&#10;20 -406 l0 -394 47 -30 c69 -44 104 -52 245 -57 110 -4 137 -2 198 16 41 13&#10;84 34 105 52 l35 31 0 822 0 823 -22 20 c-33 30 -96 59 -156 72 -69 14 -224&#10;13 -287 -3z m230 -6 c89 -10 178 -43 204 -74 9 -10 12 -233 12 -833 l0 -818&#10;-31 -26 c-112 -95 -445 -88 -548 11 l-24 22 4 379 c2 216 7 379 12 379 5 0 7&#10;-154 3 -376 -6 -369 -6 -375 15 -396 51 -51 200 -85 322 -73 89 8 182 37 212&#10;66 l24 22 0 812 c0 918 9 823 -85 867 -45 21 -65 23 -200 23 -135 0 -155 -2&#10;-200 -23 -27 -13 -60 -33 -72 -44 l-23 -21 7 -394 c4 -235 3 -393 -3 -393 -5&#10;0 -10 167 -12 398 l-4 397 24 22 c35 33 111 63 181 72 88 12 83 12 182 1z&#10;m-101 -71 c6 -40 3 -55 -9 -69 -16 -18 -20 -17 -88 14 -40 19 -83 38 -97 44&#10;l-25 10 39 17 c42 18 104 32 147 34 24 1 27 -3 33 -50z m25 19 c-1 -31 -1 -31&#10;-8 -8 -5 14 -6 28 -4 33 9 15 13 6 12 -25z m171 5 c63 -21 67 -29 23 -43 -21&#10;-7 -64 -26 -97 -42 -32 -16 -59 -28 -60 -26 -30 41 -32 49 -22 93 l11 46 50&#10;-7 c27 -3 70 -13 95 -21z m-352 -70 c70 -27 112 -51 112 -62 -1 -8 -107 -84&#10;-148 -105 -52 -27 -62 -11 -62 94 0 47 3 90 7 93 10 11 20 9 91 -20z m447 -72&#10;c0 -130 -7 -133 -119 -57 -47 32 -88 62 -91 67 -10 15 160 90 195 86 12 -2 15&#10;-20 15 -96z m-245 18 c0 -10 -30 -20 -41 -13 -13 7 -11 28 3 42 10 10 15 9 25&#10;-5 7 -9 13 -20 13 -24z m-93 -74 c-28 -24 -62 -57 -75 -74 -26 -36 -42 -39&#10;-66 -13 -16 18 -13 21 46 60 35 23 77 52 93 66 21 17 34 21 42 14 10 -8 0 -21&#10;-40 -53z m264 -50 c16 -9 29 -18 29 -20 0 -3 -11 -12 -25 -21 -26 -17 -26 -17&#10;-104 59 -94 92 -91 119 6 46 35 -27 77 -56 94 -64z m-98 -4 c31 -31 57 -60 57&#10;-67 0 -6 -8 -18 -19 -28 -17 -16 -19 -14 -35 28 -10 25 -35 61 -57 81 l-40 36&#10;-31 -18 c-34 -20 -73 -74 -83 -115 -9 -34 -15 -34 -37 -4 -17 24 -17 24 63&#10;101 92 88 73 89 182 -14z m-58 -2 c43 -38 71 -119 52 -150 -6 -10 -15 -19 -18&#10;-19 -7 0 -24 35 -51 108 -11 30 -23 50 -27 45 -4 -4 -20 -41 -35 -80 -15 -40&#10;-31 -73 -35 -73 -4 0 -14 11 -21 25 -11 21 -10 31 4 69 14 37 74 106 91 106 2&#10;0 20 -14 40 -31z m-256 -44 l30 -26 -42 -60 -42 -61 -3 73 c-4 107 4 118 57&#10;74z m489 -63 c2 -45 -1 -82 -5 -82 -4 1 -25 28 -45 61 l-38 60 28 24 c46 42&#10;57 31 60 -63z m-277 -12 c-5 -58 -9 -65 -28 -68 -13 -2 -23 0 -23 5 0 10 52&#10;134 55 131 2 -2 0 -32 -4 -68z m171 -72 c-2 -79 1 -108 8 -98 5 8 10 56 10&#10;105 l0 90 34 -54 34 -55 -41 -53 -40 -54 -29 27 c-32 31 -37 68 -10 83 9 6 12&#10;11 6 11 -25 0 -23 44 2 77 14 18 26 33 27 33 1 0 1 -51 -1 -112z m-292 28 c0&#10;-14 -5 -26 -11 -26 -6 0 -3 -7 5 -16 9 -8 16 -22 16 -30 0 -15 -56 -82 -62&#10;-74 -3 3 -21 27 -41 54 -40 53 -40 54 12 131 l21 30 0 -97 c0 -59 4 -98 10&#10;-98 6 0 10 40 10 101 l0 102 20 -26 c11 -14 20 -37 20 -51z m160 28 c25 -57&#10;25 -54 -5 -54 -23 0 -25 3 -25 50 0 28 2 50 5 50 3 0 15 -21 25 -46z m-44 -78&#10;c3 -8 4 -29 2 -48 l-3 -33 -23 42 c-12 23 -22 45 -22 48 0 12 41 4 46 -9z m42&#10;-33 c-28 -64 -28 -64 -28 -5 0 48 2 52 24 52 l25 0 -21 -47z m72 37 c0 -5 -2&#10;-10 -4 -10 -3 0 -8 5 -11 10 -3 6 -1 10 4 10 6 0 11 -4 11 -10z m-10 -50 c0&#10;-9 -12 -39 -26 -68 -22 -45 -28 -50 -44 -42 -17 9 -18 14 -6 48 8 20 22 54 32&#10;75 17 35 20 37 31 21 7 -10 13 -25 13 -34z m-131 -28 c20 -51 22 -64 11 -77&#10;-17 -21 -33 -6 -55 51 -18 47 -14 99 8 91 6 -2 23 -31 36 -65z m-183 6 l34&#10;-46 -33 -21 c-53 -32 -57 -29 -57 50 0 82 7 84 56 17z m494 -24 c0 -41 -4 -64&#10;-11 -64 -13 0 -79 39 -79 47 0 13 73 92 81 87 5 -3 9 -34 9 -70z m-356 -42&#10;c26 -50 16 -57 -32 -23 -48 36 -51 45 -20 78 l23 24 6 -23 c3 -13 14 -38 23&#10;-56z m236 18 c-1 -10 -84 -68 -92 -64 -4 2 4 26 18 53 13 27 24 55 24 62 1 8&#10;12 1 25 -16 14 -16 25 -32 25 -35z m-329 -124 c5 -6 9 12 9 47 l0 58 35 -28&#10;36 -28 -38 -32 c-41 -35 -44 -34 -102 16 l-33 29 38 20 39 20 3 -46 c2 -26 7&#10;-51 13 -56z m347 47 c1 31 4 57 7 57 15 0 85 -44 78 -50 -4 -3 -26 -20 -48&#10;-37 -37 -28 -42 -30 -60 -16 -11 8 -29 21 -40 29 -20 15 -19 16 15 44 l35 29&#10;6 -57 6 -57 1 58z m-154 18 c3 -5 -1 -14 -9 -21 -12 -10 -18 -10 -30 0 -13 11&#10;-13 15 -3 21 17 11 35 11 42 0z m-241 -61 l35 -30 -40 -40 c-22 -22 -42 -40&#10;-44 -40 -2 0 -4 32 -4 70 0 39 4 70 10 70 5 0 25 -14 43 -30z m312 -43 c14&#10;-48 14 -52 -4 -70 -18 -18 -19 -17 -45 49 -26 64 -27 69 -10 81 25 18 41 2 59&#10;-60z m183 3 c-2 -38 -5 -70 -8 -70 -14 0 -82 82 -74 89 28 24 68 51 76 51 5 0&#10;8 -31 6 -70z m-377 15 l-16 -45 -20 20 -20 20 30 25 c17 13 33 24 36 25 4 0&#10;-1 -20 -10 -45z m84 35 c5 -8 -38 -126 -51 -139 -7 -7 -33 32 -33 49 -1 8 8&#10;34 19 58 18 41 50 57 65 32z m159 -25 c19 -14 19 -15 0 -36 l-19 -21 -17 39&#10;c-9 21 -17 42 -17 46 -1 8 23 -4 53 -28z m-143 -65 c-5 -58 -9 -65 -28 -68&#10;-13 -2 -23 0 -23 5 0 9 52 135 55 131 1 -2 -1 -32 -4 -68z m-121 -37 c0 -12&#10;-6 -23 -12 -25 -9 -3 -8 -9 5 -22 24 -24 21 -41 -12 -78 l-30 -33 -31 30 c-17&#10;17 -32 41 -35 54 -2 13 -11 28 -20 35 -13 9 -9 17 28 55 l42 45 3 -97 c2 -58&#10;7 -97 13 -97 7 0 9 38 7 106 l-3 105 22 -28 c13 -15 23 -38 23 -50z m179 -26&#10;c1 -5 -9 -7 -21 -5 -20 3 -23 9 -25 58 l-2 55 24 -50 c13 -27 24 -54 24 -58z&#10;m113 -2 c-2 -70 0 -105 7 -105 7 0 11 35 11 98 l0 97 46 -47 c51 -55 51 -58&#10;-17 -125 l-43 -43 -28 27 c-33 31 -39 83 -10 83 16 1 16 1 0 14 -25 18 -22 39&#10;8 75 14 17 27 31 27 31 1 0 1 -47 -1 -105z m-544 52 c3 -22 -1 -27 -17 -27&#10;-15 0 -21 6 -21 23 0 46 33 49 38 4z m482 -37 c0 -5 -5 -10 -11 -10 -5 0 -7 5&#10;-4 10 3 6 8 10 11 10 2 0 4 -4 4 -10z m-495 -10 c-3 -5 -11 -10 -16 -10 -6 0&#10;-7 5 -4 10 3 6 11 10 16 10 6 0 7 -4 4 -10z m123 -33 c28 -29 5 -30 -60 -2&#10;l-63 26 53 -4 c31 -2 60 -11 70 -20z m262 -32 c0 -25 -2 -45 -5 -45 -5 0 -45&#10;75 -45 85 0 3 11 5 25 5 23 0 25 -4 25 -45z m31 -19 c-14 -35 -26 -63 -27 -63&#10;-1 1 1 30 4 65 4 56 6 62 27 62 l23 0 -27 -64z m79 54 c0 -5 -2 -10 -4 -10 -3&#10;0 -8 5 -11 10 -3 6 -1 10 4 10 6 0 11 -4 11 -10z m-127 -127 c2 -22 -2 -28&#10;-18 -28 -30 0 -63 95 -45 133 l13 27 24 -52 c13 -29 25 -65 26 -80z m117 79&#10;c0 -7 -10 -36 -21 -63 -18 -40 -26 -49 -43 -47 -26 4 -24 22 12 102 23 53 27&#10;56 39 40 7 -10 13 -24 13 -32z m-475 28 c-3 -5 -12 -7 -20 -3 -21 7 -19 13 6&#10;13 11 0 18 -4 14 -10z m653 -75 c2 -44 -1 -65 -9 -65 -11 0 -79 38 -79 45 0 4&#10;74 82 80 84 3 0 6 -28 8 -64z m-648 15 c0 -33 -3 -40 -20 -40 -17 0 -20 7 -20&#10;40 0 33 3 40 20 40 17 0 20 -7 20 -40z m153 -57 c-21 -13 -41 -23 -45 -23 -10&#10;0 -10 104 -1 114 4 3 24 -10 45 -31 l38 -37 -37 -23z m138 10 c22 -52 10 -55&#10;-41 -13 l-35 28 25 27 c17 18 26 22 28 13 3 -7 13 -32 23 -55z m239 16 c0 -5&#10;-21 -22 -46 -40 -26 -17 -45 -28 -43 -23 3 5 13 32 24 61 l19 52 23 -21 c13&#10;-12 23 -25 23 -29z m-282 -101 l-33 -27 -3 50 c-4 61 -22 55 -22 -7 0 -25 -3&#10;-44 -7 -42 -5 2 -25 12 -45 21 -21 10 -38 21 -38 25 1 4 24 21 53 37 l52 31&#10;38 -30 38 -30 -33 -28z m383 37 c29 -9 23 -17 -31 -47 l-50 -28 -2 58 -2 57&#10;-3 -52 c-2 -29 -7 -53 -10 -53 -4 0 -20 12 -35 27 l-29 27 38 32 37 31 34 -23&#10;c18 -13 42 -26 53 -29z m-241 -10 c10 -12 9 -16 -5 -21 -19 -8 -40 9 -31 25&#10;10 15 21 14 36 -4z m-80 -17 c0 -2 -11 -29 -23 -60 l-24 -58 -21 23 c-29 31&#10;-28 37 10 69 27 23 58 36 58 26z m186 -32 l39 -34 -24 -26 -24 -26 -28 58&#10;c-34 67 -32 62 -16 62 8 0 31 -15 53 -34z m-358 -1 c57 -31 57 -29 14 -83 -22&#10;-28 -42 -48 -46 -45 -7 8 -8 143 -1 143 4 0 18 -7 33 -15z m215 -17 c-1 -14&#10;-11 -49 -24 -77 -17 -41 -24 -49 -35 -40 -19 16 -17 42 7 100 15 35 27 49 38&#10;47 10 -3 15 -13 14 -30z m79 10 c29 -45 40 -95 27 -120 -12 -22 -14 -21 -41&#10;37 -28 60 -34 86 -21 98 11 12 20 8 35 -15z m218 -40 c0 -90 -9 -97 -53 -38&#10;-20 27 -37 52 -37 55 0 5 71 44 83 45 4 0 7 -28 7 -62z m-242 -106 c-11 -2&#10;-21 -2 -23 0 -1 2 -5 30 -7 63 l-5 60 27 -60 c26 -57 26 -60 8 -63z m-148 32&#10;c0 -7 -8 -20 -17 -30 -13 -13 -14 -19 -5 -22 19 -6 14 -49 -10 -77 l-23 -26 3&#10;105 c2 68 0 106 -7 106 -6 0 -11 -39 -13 -97 l-3 -98 -33 53 -33 54 42 56 42&#10;56 29 -34 c15 -19 28 -40 28 -46z m328 22 l41 -53 -32 -52 c-17 -28 -34 -51&#10;-37 -51 -3 0 -4 39 -2 86 2 56 -1 90 -8 98 -8 8 -10 -16 -8 -97 l3 -108 -27&#10;30 c-32 36 -34 44 -13 65 8 8 15 17 15 20 0 3 -7 6 -15 6 -24 0 -18 45 11 79&#10;14 17 27 31 29 31 1 0 21 -24 43 -54z m-218 -11 c0 -41 -2 -45 -25 -45 -14 0&#10;-25 1 -25 3 0 8 41 87 45 87 3 0 5 -20 5 -45z m110 -35 c0 -5 -5 -10 -11 -10&#10;-5 0 -7 5 -4 10 3 6 8 10 11 10 2 0 4 -4 4 -10z m-330 -86 l38 -57 -28 -24&#10;c-51 -43 -60 -34 -60 64 0 47 3 84 6 80 4 -3 23 -32 44 -63z m496 -91 c-8 -19&#10;-27 -16 -59 10 l-29 22 44 65 43 65 3 -74 c2 -41 1 -80 -2 -88z m-276 98 c0&#10;-27 2 -58 5 -68 3 -10 -8 9 -24 42 -37 74 -37 75 -6 75 23 0 25 -3 25 -49z&#10;m60 45 c0 -8 -41 -96 -45 -96 -3 0 -5 23 -5 50 0 47 2 50 25 50 14 0 25 -2 25&#10;-4z m50 -6 c0 -5 -2 -10 -4 -10 -3 0 -8 5 -11 10 -3 6 -1 10 4 10 6 0 11 -4&#10;11 -10z m-143 -76 c17 -41 34 -75 38 -75 4 0 21 32 36 71 15 40 30 74 33 77 2&#10;3 12 -6 20 -20 15 -22 15 -28 1 -68 -16 -44 -69 -109 -90 -109 -21 0 -74 61&#10;-91 106 -14 38 -15 48 -4 69 7 14 16 25 20 25 4 0 21 -34 37 -76z m-41 -79&#10;c10 -16 31 -36 48 -46 26 -16 32 -16 57 -4 33 18 62 57 79 108 12 37 13 38 31&#10;21 10 -9 19 -22 19 -29 0 -6 -34 -44 -75 -84 -87 -84 -80 -85 -180 15 l-66 66&#10;23 25 22 24 12 -35 c7 -19 20 -46 30 -61z m-22 -40 c78 -76 97 -121 28 -69&#10;-47 37 -128 91 -144 97 -9 4 -5 12 12 26 14 11 25 21 26 21 0 0 36 -34 78 -75z&#10;m302 56 l24 -19 -37 -23 c-21 -13 -63 -42 -94 -65 -37 -29 -60 -40 -69 -34&#10;-10 6 -5 15 21 36 19 16 54 50 79 76 24 26 46 48 48 48 2 0 15 -9 28 -19z&#10;m-390 -62 c63 -40 124 -88 124 -98 0 -12 -134 -71 -174 -78 l-36 -6 0 95 c0&#10;86 8 118 30 118 3 0 28 -14 56 -31z m462 -82 l-3 -92 -33 1 c-18 1 -67 18&#10;-108 38 l-76 36 50 40 c79 63 132 90 154 79 17 -9 18 -21 16 -102z m-259 -39&#10;c-8 -15 -13 -17 -25 -7 -28 23 -5 59 23 37 9 -7 10 -15 2 -30z m-44 -12 c12&#10;-19 15 -36 9 -72 l-7 -47 -59 7 c-33 3 -81 15 -106 27 l-47 20 71 28 c39 15&#10;82 35 95 44 29 21 26 22 44 -7z m208 -41 l61 -22 -29 -15 c-32 -17 -122 -38&#10;-158 -38 -18 0 -24 8 -33 46 -9 39 -8 49 8 69 l19 24 36 -21 c19 -12 63 -31&#10;96 -43z m-177 -73 c-11 -10 -15 4 -8 28 l7 25 3 -23 c2 -13 1 -26 -2 -30z" style="fill: rgb(255, 255, 255);"/>
    <path d="M2347 1862 c-15 -16 -17 -35 -15 -103 l3 -84 250 -3 c138 -2 278 0&#10;313 3 l62 7 0 84 c0 77 -2 85 -24 99 -22 15 -27 15 -56 0 -74 -38 -346 -44&#10;-441 -10 -24 9 -51 19 -59 21 -9 3 -24 -3 -33 -14z m293 -37 c150 1 193 4 228&#10;17 24 10 40 13 37 8 -33 -54 -486 -54 -520 0 -3 5 11 2 32 -8 32 -14 69 -17&#10;223 -17z m-284 -59 c2 -33 0 -56 -6 -56 -6 0 -10 28 -10 62 0 75 10 71 16 -6z&#10;m65 48 c65 -24 303 -30 394 -11 39 8 78 18 88 22 15 6 17 0 17 -48 l0 -55&#10;-112 -7 c-62 -3 -185 -5 -273 -3 l-160 3 -3 58 c-2 31 -1 57 1 57 3 0 24 -7&#10;48 -16z m521 -31 c-5 -76 -10 -83 -11 -15 0 34 2 62 7 62 4 0 6 -21 4 -47z&#10;m-149 -90 c-78 -2 -208 -2 -290 0 -81 1 -17 3 142 3 160 0 226 -2 148 -3z" style="fill: rgb(255, 255, 255);"/>
  </g>
</svg>